<?xml version="1.0" encoding="UTF-8"?>
<svg id="Layer_1" data-name="Layer 1" xmlns="http://www.w3.org/2000/svg" viewBox="0 0 595.28 595.28">
  <defs>
    <style>
      .cls-1 {
        fill: #bf1e2d;
      }

      .cls-2 {
        fill: #262262;
      }
    </style>
  </defs>
  <path class="cls-2" d="M358.9,217.24c0,8.07-3.63,15.3-9.33,20.14-1.76,1.5-3.74,2.77-5.86,3.76-.29,.14-.59,.26-.9,.37l-2.93,1.05-35.3,12.82-21.94,7.97-57,20.69c-6.45,2.34-13.17-2.75-12.65-9.6l1.27-16.71c.28-3.7,2.71-6.9,6.2-8.17l77.64-28.19h.03c.5-.1,.97-.28,1.38-.5l.05-.03c1.63-.88,2.73-2.62,2.73-4.58s-1.1-3.7-2.73-4.58l-73.17-37.65c-3.38-1.74-5.39-5.33-5.1-9.12l1.43-18.88c.51-6.74,7.73-10.78,13.74-7.69l105.76,54.39,4.03,2.08c.36,.18,.7,.38,1.03,.61,2.38,1.61,4.47,3.59,6.2,5.87,3.4,4.43,5.4,9.95,5.4,15.97Z"/>
  <path class="cls-1" d="M361.85,364.69l-14.8-.03c-3.13,0-6.06-1.56-7.81-4.16l-24.88-36.79-6.78-10c-.18-.33-.4-.67-.65-.97-2.17-2.92-5.65-4.82-9.58-4.82s-7.57,1.98-9.73,5c-.33,.45-.62,.92-.88,1.42l-6.23,10.12-21.96,35.56c-1.72,2.79-4.77,4.49-8.05,4.48l-14.39-.02c-7.39-.01-11.91-8.12-8.03-14.42l41.28-66.83,1.81-2.94c.15-.24,.3-.47,.46-.7,2.13-2.95,4.77-5.5,7.79-7.54,4.97-3.37,10.98-5.33,17.45-5.33,6.02,0,11.63,1.7,16.4,4.67,3.65,2.25,6.8,5.25,9.23,8.78l.42,.62,46.79,69.15c4.25,6.28-.26,14.76-7.84,14.75Z"/>
  <g>
    <g>
      <path class="cls-2" d="M145.85,454.27v-54.49c0-.93,.76-1.69,1.69-1.69h16.91c4.08,0,7.56,.62,10.46,1.86s5.14,3.07,6.74,5.5c1.6,2.42,2.4,5.46,2.4,9.09,0,4.3-1.13,7.65-3.39,10.04-1.83,1.94-4.19,3.36-7.09,4.27-1.06,.33-1.55,1.55-.97,2.5l13.58,22.02c.69,1.12-.12,2.57-1.44,2.57h-6.59c-.6,0-1.16-.32-1.46-.84l-13.57-23.29c-.3-.52-.86-.84-1.46-.84h-5.36c-.93,0-1.69,.76-1.69,1.69v21.59c0,.93-.76,1.69-1.69,1.69h-5.39c-.93,0-1.69-.76-1.69-1.69Zm8.76-32.48c0,.93,.76,1.69,1.69,1.69h7.98c2.75,0,4.92-.36,6.49-1.08,1.57-.71,2.69-1.75,3.35-3.1,.66-1.35,.99-2.93,.99-4.75,0-1.93-.33-3.57-.99-4.92-.66-1.35-1.78-2.37-3.35-3.06-1.57-.69-3.73-1.03-6.49-1.03h-7.98c-.93,0-1.69,.76-1.69,1.69v14.56Z"/>
      <path class="cls-2" d="M202.23,456.95c-2.59,0-4.99-.48-7.19-1.45-2.2-.96-3.97-2.38-5.29-4.26-1.32-1.87-1.98-4.13-1.98-6.78,0-3.09,.79-5.59,2.36-7.52,1.57-1.93,3.69-3.33,6.36-4.21,2.67-.88,5.61-1.32,8.8-1.32h8.65c.98,0,1.78-.84,1.68-1.82-.15-1.55-.51-2.86-1.07-3.93-.77-1.46-1.83-2.55-3.18-3.27-1.35-.71-2.91-1.07-4.67-1.07-2.26,0-4.26,.54-5.99,1.61-1.43,.88-2.42,2.21-2.97,3.97-.22,.71-.87,1.2-1.61,1.2h-5.56c-1.1,0-1.89-1.03-1.64-2.1,.48-2.09,1.37-3.92,2.69-5.51,1.74-2.09,3.94-3.71,6.61-4.83,2.67-1.13,5.52-1.69,8.55-1.69,4.02,0,7.33,.73,9.92,2.19,2.59,1.46,4.55,3.49,5.87,6.08,1.32,2.59,1.98,5.57,1.98,8.93v12.48c.05,1.6,.4,2.77,1.03,3.51,.45,.53,1.15,.9,2.1,1.11,.75,.16,1.25,.87,1.25,1.63v4.31c0,.97-.82,1.75-1.79,1.69-1.46-.1-2.76-.33-3.91-.68-1.6-.5-2.93-1.24-4.01-2.23-.52-.48-.99-1.04-1.4-1.68-.6-.93-1.94-.96-2.67-.12-1.15,1.33-2.56,2.49-4.23,3.5-2.54,1.51-5.43,2.27-8.68,2.27Zm2.07-7.19c2.31,0,4.31-.56,5.99-1.69,1.68-1.13,3-2.6,3.97-4.42,.96-1.82,1.45-3.8,1.45-5.95v-.25h-9.84c-1.54,0-3.02,.19-4.42,.58-1.41,.39-2.54,1.03-3.39,1.94-.86,.91-1.28,2.16-1.28,3.76,0,2.09,.74,3.62,2.23,4.59,1.49,.96,3.25,1.45,5.29,1.45Z"/>
      <path class="cls-2" d="M249.26,456.95c-3.97,0-7.51-.91-10.62-2.73-3.11-1.82-5.55-4.34-7.32-7.56-1.76-3.22-2.65-6.96-2.65-11.2s.87-7.89,2.6-11.12c1.74-3.22,4.15-5.76,7.23-7.6,3.08-1.85,6.67-2.77,10.75-2.77,4.9,0,9.05,1.25,12.44,3.76,2.83,2.09,4.84,4.9,6.04,8.43,.37,1.08-.47,2.19-1.61,2.19h-5.74c-.69,0-1.31-.42-1.56-1.06-.63-1.61-1.67-2.93-3.13-3.98-1.76-1.27-3.94-1.9-6.53-1.9s-4.73,.65-6.41,1.94c-1.68,1.29-2.95,3.02-3.8,5.17-.85,2.15-1.28,4.46-1.28,6.94,0,2.64,.46,5.03,1.36,7.15,.91,2.12,2.22,3.8,3.93,5.04,1.71,1.24,3.77,1.86,6.2,1.86s4.68-.59,6.45-1.78c1.47-.99,2.54-2.36,3.21-4.1,.25-.64,.87-1.07,1.56-1.07h5.76c1.17,0,1.96,1.16,1.59,2.26-.68,1.99-1.67,3.79-2.98,5.38-1.79,2.18-4,3.84-6.61,5s-5.58,1.74-8.89,1.74Z"/>
      <path class="cls-2" d="M276.78,421.78c-1.54,0-3.02-.29-4.38-.83v33.32c0,.93,.76,1.69,1.69,1.69h5.39c.93,0,1.68-.76,1.68-1.69v-33.32c-1.36,.54-2.84,.83-4.38,.83Z"/>
      <path class="cls-2" d="M320.42,418.47c-2.97-3-6.86-4.51-11.65-4.51-2.76,0-5.36,.61-7.81,1.82-1.15,.57-2.18,1.26-3.1,2.06-.32,.28-.7,.41-1.07,.41-.85,0-1.67-.67-1.7-1.65-.02-.92-.77-1.64-1.68-1.64h-5.11c-.27,0-.52,.06-.74,.18-.27,.55-.59,1.06-.94,1.55v37.58c0,.93,.75,1.69,1.68,1.69h5.39c.93,0,1.69-.76,1.69-1.69v-20.3c0-3.91,.98-6.99,2.93-9.22,1.96-2.23,4.59-3.35,7.9-3.35s5.71,1.02,7.39,3.06c1.69,2.04,2.53,4.88,2.53,8.52v21.29c0,.93,.75,1.69,1.68,1.69h5.39c.93,0,1.69-.76,1.69-1.69v-22.37c0-5.95-1.49-10.43-4.47-13.43Z"/>
      <path class="cls-2" d="M348.03,456.95c-4.08,0-7.66-.91-10.75-2.73-3.09-1.82-5.5-4.35-7.23-7.61-1.74-3.25-2.6-6.97-2.6-11.16s.87-8.13,2.6-11.32c1.74-3.2,4.15-5.69,7.23-7.48,3.08-1.79,6.7-2.69,10.83-2.69s7.42,.87,10.37,2.6c2.95,1.74,5.28,4.11,6.98,7.11,1.71,3,2.56,6.41,2.56,10.21,0,.72-.01,1.36-.04,1.94,0,.14-.02,.29-.03,.45-.07,.88-.8,1.58-1.69,1.58h-28.07c-1.08,0-1.86,.99-1.65,2.05,.29,1.49,.78,2.85,1.47,4.07,.99,1.76,2.33,3.16,4.01,4.17,1.68,1.02,3.62,1.53,5.83,1.53,2.42,0,4.46-.54,6.12-1.61,1.41-.92,2.54-2.17,3.39-3.75,.28-.53,.86-.84,1.46-.84h5.64c1.23,0,2.04,1.27,1.54,2.39-.69,1.56-1.6,3.02-2.73,4.39-1.68,2.04-3.8,3.67-6.37,4.88-2.56,1.21-5.52,1.82-8.89,1.82Zm-9.64-25.38h18.83c1.08,0,1.86-1,1.65-2.05-.45-2.24-1.51-4.08-3.2-5.51-2.18-1.85-4.78-2.77-7.81-2.77-2.76,0-5.26,.86-7.52,2.56-1.77,1.34-2.96,3.21-3.58,5.62-.28,1.08,.51,2.15,1.63,2.15Z"/>
      <path class="cls-2" d="M386.44,454.27v-5.06c0-.93,.76-1.69,1.69-1.69h7.17c.93,0,1.69-.76,1.69-1.69v-20.45c0-1.06-.96-1.86-2-1.66l-6.04,1.16c-1.04,.2-2-.6-2-1.66v-4.46c0-.71,.45-1.35,1.12-1.59l12.68-4.52c.18-.06,.37-.1,.57-.1h3.17c.93,0,1.69,.76,1.69,1.69v31.59c0,.93,.76,1.69,1.69,1.69h6.3c.93,0,1.69,.76,1.69,1.69v5.06c0,.93-.76,1.69-1.69,1.69h-26.01c-.93,0-1.69-.76-1.69-1.69Z"/>
      <path class="cls-2" d="M433.75,454.27v-3.88c0-.93-.76-1.69-1.69-1.69h-15.47c-.93,0-1.69-.76-1.69-1.69v-5.72c0-.26,.06-.52,.18-.76l13.61-27.04c.29-.57,.87-.93,1.51-.93h5.81c1.25,0,2.06,1.3,1.52,2.42l-11.16,22.92c-.55,1.12,.27,2.42,1.52,2.42h4.85c.93,0,1.69-.76,1.69-1.69v-7.23c0-.93,.76-1.69,1.69-1.69h5.74c.93,0,1.69,.76,1.69,1.69v7.23c0,.93,.76,1.69,1.69,1.69h.78c.93,0,1.69,.76,1.69,1.69v5c0,.93-.76,1.69-1.69,1.69h-.78c-.93,0-1.69,.76-1.69,1.69v3.88c0,.93-.76,1.69-1.69,1.69h-6.42c-.93,0-1.69-.76-1.69-1.69Z"/>
    </g>
    <path class="cls-2" d="M287.56,415.14c-.27,.55-.59,1.06-.94,1.55v-.05c0-.66,.38-1.24,.94-1.5Z"/>
  </g>
  <circle class="cls-1" cx="276.78" cy="409.7" r="7.79"/>
</svg>