<?xml version="1.0" encoding="UTF-8"?>
<svg id="Layer_1" data-name="Layer 1" xmlns="http://www.w3.org/2000/svg" viewBox="0 0 595.28 171">
  <defs>
    <style>
      .cls-1 {
        fill: #bf1e2d;
      }

      .cls-2 {
        fill: #262262;
      }
    </style>
  </defs>
  <path class="cls-2" d="M171.61,68.31c0,2.99-1.35,5.67-3.46,7.46-.65,.55-1.39,1.03-2.17,1.4-.11,.05-.22,.1-.33,.14l-1.08,.39-13.09,4.75-8.13,2.95-21.13,7.67c-2.39,.87-4.88-1.02-4.69-3.56l.47-6.2c.1-1.37,1-2.56,2.3-3.03l28.78-10.45h.01c.19-.04,.36-.1,.51-.19h.02c.61-.34,1.01-.98,1.01-1.71s-.41-1.37-1.01-1.7l-27.12-13.96c-1.25-.64-2-1.98-1.89-3.38l.53-7c.19-2.5,2.87-4,5.1-2.85l39.21,20.16,1.5,.77c.13,.07,.26,.14,.38,.22,.88,.6,1.66,1.33,2.3,2.18,1.26,1.64,2,3.69,2,5.92Z"/>
  <path class="cls-1" d="M172.7,122.96h-5.49c-1.16-.01-2.25-.59-2.9-1.55l-9.22-13.64-2.51-3.71c-.07-.12-.15-.25-.24-.36-.8-1.08-2.09-1.79-3.55-1.79s-2.81,.74-3.61,1.85c-.12,.17-.23,.34-.33,.53l-2.31,3.75-8.14,13.18c-.64,1.03-1.77,1.66-2.99,1.66h-5.33c-2.74-.01-4.42-3.02-2.98-5.35l15.3-24.77,.67-1.09c.05-.09,.11-.18,.17-.26,.79-1.1,1.77-2.04,2.89-2.8,1.84-1.25,4.07-1.98,6.47-1.98,2.23,0,4.31,.63,6.08,1.73,1.35,.83,2.52,1.95,3.42,3.26l.15,.23,17.34,25.63c1.58,2.33-.1,5.47-2.91,5.47Z"/>
  <g>
    <g>
      <path class="cls-2" d="M189.88,108.16V58.56c0-.85,.69-1.54,1.54-1.54h15.39c3.71,0,6.88,.56,9.52,1.69s4.68,2.8,6.13,5c1.45,2.21,2.18,4.97,2.18,8.28,0,3.91-1.03,6.96-3.08,9.14-1.66,1.76-3.81,3.06-6.46,3.89-.97,.3-1.41,1.42-.88,2.28l12.36,20.04c.63,1.02-.1,2.34-1.31,2.34h-6c-.55,0-1.05-.29-1.33-.76l-12.35-21.2c-.28-.47-.78-.76-1.33-.76h-4.88c-.85,0-1.54,.69-1.54,1.54v19.65c0,.85-.69,1.54-1.54,1.54h-4.9c-.85,0-1.54-.69-1.54-1.54Zm7.98-29.57c0,.85,.69,1.54,1.54,1.54h7.27c2.51,0,4.48-.33,5.91-.98,1.43-.65,2.45-1.59,3.05-2.82,.6-1.23,.9-2.67,.9-4.33,0-1.75-.3-3.25-.9-4.48-.6-1.23-1.62-2.16-3.05-2.78-1.43-.63-3.4-.94-5.91-.94h-7.27c-.85,0-1.54,.69-1.54,1.54v13.26Z"/>
      <path class="cls-2" d="M241.2,110.6c-2.36,0-4.54-.44-6.55-1.32-2.01-.88-3.61-2.17-4.82-3.87-1.2-1.7-1.81-3.76-1.81-6.17,0-2.81,.72-5.09,2.14-6.85,1.43-1.75,3.36-3.03,5.79-3.84,2.43-.8,5.1-1.2,8.01-1.2h7.87c.89,0,1.62-.76,1.53-1.65-.14-1.41-.46-2.6-.98-3.57-.7-1.33-1.67-2.32-2.9-2.97-1.23-.65-2.65-.98-4.25-.98-2.06,0-3.87,.49-5.46,1.47-1.3,.8-2.2,2.01-2.7,3.61-.2,.64-.79,1.09-1.46,1.09h-5.06c-1,0-1.72-.94-1.49-1.91,.43-1.9,1.25-3.57,2.44-5.01,1.58-1.9,3.59-3.37,6.02-4.4,2.43-1.03,5.03-1.54,7.79-1.54,3.66,0,6.67,.66,9.03,1.99,2.36,1.33,4.14,3.17,5.34,5.53,1.2,2.36,1.81,5.07,1.81,8.13v11.36c.05,1.46,.36,2.52,.94,3.2,.41,.48,1.05,.82,1.91,1.01,.68,.15,1.14,.79,1.14,1.49v3.93c0,.88-.75,1.6-1.63,1.54-1.33-.09-2.51-.3-3.56-.62-1.46-.45-2.67-1.13-3.65-2.03-.48-.44-.9-.95-1.28-1.53-.55-.85-1.77-.88-2.43-.11-1.04,1.21-2.33,2.27-3.85,3.18-2.31,1.38-4.94,2.07-7.9,2.07Zm1.88-6.55c2.11,0,3.92-.51,5.46-1.54,1.53-1.03,2.73-2.37,3.61-4.03,.88-1.66,1.32-3.46,1.32-5.42v-.23h-8.95c-1.4,0-2.75,.18-4.02,.53-1.28,.35-2.31,.94-3.08,1.77-.78,.83-1.17,1.97-1.17,3.42,0,1.91,.68,3.3,2.03,4.18,1.35,.88,2.96,1.32,4.82,1.32Z"/>
      <path class="cls-2" d="M284.01,110.6c-3.61,0-6.83-.83-9.67-2.48-2.83-1.66-5.05-3.95-6.66-6.88-1.61-2.93-2.41-6.33-2.41-10.19s.79-7.19,2.37-10.12c1.58-2.93,3.77-5.24,6.58-6.92,2.81-1.68,6.07-2.52,9.78-2.52,4.46,0,8.24,1.14,11.32,3.42,2.57,1.9,4.41,4.46,5.5,7.68,.33,.98-.43,1.99-1.47,1.99h-5.22c-.63,0-1.19-.38-1.42-.97-.57-1.46-1.52-2.67-2.85-3.62-1.61-1.15-3.59-1.73-5.94-1.73s-4.3,.59-5.83,1.77c-1.53,1.18-2.68,2.75-3.46,4.7-.78,1.96-1.17,4.06-1.17,6.32,0,2.41,.41,4.58,1.24,6.51,.83,1.93,2.02,3.46,3.57,4.59,1.55,1.13,3.43,1.69,5.64,1.69s4.26-.54,5.87-1.62c1.34-.9,2.32-2.15,2.92-3.73,.22-.59,.79-.97,1.42-.97h5.24c1.07,0,1.79,1.05,1.45,2.06-.62,1.81-1.52,3.45-2.71,4.9-1.63,1.98-3.64,3.5-6.02,4.55s-5.08,1.58-8.09,1.58Z"/>
      <path class="cls-2" d="M309.06,78.59c-1.4,0-2.75-.26-3.99-.76v30.33c0,.85,.69,1.54,1.54,1.54h4.91c.85,0,1.53-.69,1.53-1.54v-30.33c-1.24,.49-2.59,.76-3.99,.76Z"/>
      <path class="cls-2" d="M348.78,75.58c-2.7-2.73-6.24-4.11-10.6-4.11-2.51,0-4.88,.56-7.11,1.66-1.05,.52-1.98,1.15-2.82,1.88-.29,.25-.64,.37-.97,.37-.77,0-1.52-.61-1.55-1.5-.02-.84-.7-1.49-1.53-1.49h-4.65c-.25,0-.47,.05-.67,.16-.25,.5-.54,.96-.86,1.41v34.21c0,.85,.68,1.54,1.53,1.54h4.91c.85,0,1.54-.69,1.54-1.54v-18.48c0-3.56,.89-6.36,2.67-8.39,1.78-2.03,4.18-3.05,7.19-3.05s5.2,.93,6.73,2.79c1.54,1.86,2.3,4.44,2.3,7.76v19.38c0,.85,.68,1.54,1.53,1.54h4.91c.85,0,1.54-.69,1.54-1.54v-20.36c0-5.42-1.36-9.49-4.07-12.22Z"/>
      <path class="cls-2" d="M373.91,110.6c-3.71,0-6.97-.83-9.78-2.48-2.81-1.66-5-3.96-6.58-6.92-1.58-2.96-2.37-6.34-2.37-10.16s.79-7.4,2.37-10.31c1.58-2.91,3.77-5.18,6.58-6.81,2.81-1.63,6.09-2.45,9.86-2.45s6.76,.79,9.44,2.37c2.68,1.58,4.8,3.74,6.36,6.47,1.55,2.73,2.33,5.83,2.33,9.29,0,.65-.01,1.24-.04,1.77,0,.13-.01,.27-.03,.41-.06,.8-.73,1.44-1.53,1.44h-25.55c-.98,0-1.69,.9-1.5,1.86,.26,1.36,.71,2.59,1.34,3.7,.9,1.61,2.12,2.87,3.65,3.8,1.53,.93,3.3,1.39,5.3,1.39,2.21,0,4.06-.49,5.57-1.47,1.29-.84,2.32-1.98,3.09-3.42,.26-.48,.78-.76,1.32-.76h5.13c1.12,0,1.86,1.15,1.4,2.18-.63,1.42-1.46,2.75-2.48,3.99-1.53,1.86-3.46,3.34-5.79,4.44-2.33,1.1-5.03,1.66-8.09,1.66Zm-8.78-23.1h17.14c.98,0,1.7-.91,1.5-1.87-.41-2.04-1.38-3.71-2.91-5.02-1.98-1.68-4.35-2.52-7.11-2.52-2.51,0-4.79,.78-6.85,2.33-1.61,1.22-2.7,2.92-3.26,5.12-.25,.99,.46,1.95,1.48,1.95Z"/>
      <path class="cls-2" d="M408.88,108.16v-4.6c0-.85,.69-1.54,1.54-1.54h6.52c.85,0,1.54-.69,1.54-1.54v-18.61c0-.96-.88-1.69-1.82-1.51l-5.49,1.05c-.95,.18-1.82-.54-1.82-1.51v-4.06c0-.65,.41-1.23,1.02-1.45l11.54-4.12c.17-.06,.34-.09,.52-.09h2.88c.85,0,1.54,.69,1.54,1.54v28.75c0,.85,.69,1.54,1.54,1.54h5.73c.85,0,1.54,.69,1.54,1.54v4.6c0,.85-.69,1.54-1.54,1.54h-23.68c-.85,0-1.54-.69-1.54-1.54Z"/>
      <path class="cls-2" d="M451.93,108.16v-3.53c0-.85-.69-1.54-1.54-1.54h-14.08c-.85,0-1.54-.69-1.54-1.54v-5.21c0-.24,.06-.48,.16-.69l12.39-24.62c.26-.52,.79-.85,1.37-.85h5.29c1.13,0,1.88,1.19,1.38,2.21l-10.15,20.87c-.5,1.02,.25,2.21,1.38,2.21h4.42c.85,0,1.54-.69,1.54-1.54v-6.58c0-.85,.69-1.54,1.54-1.54h5.22c.85,0,1.54,.69,1.54,1.54v6.58c0,.85,.69,1.54,1.54,1.54h.71c.85,0,1.54,.69,1.54,1.54v4.55c0,.85-.69,1.54-1.54,1.54h-.71c-.85,0-1.54,.69-1.54,1.54v3.53c0,.85-.69,1.54-1.54,1.54h-5.85c-.85,0-1.54-.69-1.54-1.54Z"/>
    </g>
    <path class="cls-2" d="M318.87,72.54c-.25,.5-.54,.96-.86,1.41v-.05c0-.6,.35-1.13,.86-1.37Z"/>
  </g>
  <circle class="cls-1" cx="309.06" cy="67.59" r="7.09"/>
</svg>